<svg xmlns="http://www.w3.org/2000/svg" viewBox="0 0 100 100">
  <rect width="100" height="100" rx="20" fill="#1a3a2a"/>
  <!-- Rolling hills -->
  <path d="M0 82 Q15 68 30 78 Q45 65 60 75 Q75 62 90 72 Q95 76 100 74 L100 100 L0 100 Z" fill="#2d5a3a" opacity="0.6"/>
  <path d="M0 88 Q20 75 40 84 Q55 72 70 80 Q85 70 100 80 L100 100 L0 100 Z" fill="#3a6b48" opacity="0.5"/>
  <!-- Bars rising from landscape -->
  <rect x="12" y="62" width="12" height="20" rx="3" fill="#c4704b"/>
  <rect x="28" y="48" width="12" height="34" rx="3" fill="#d4a843"/>
  <rect x="44" y="34" width="12" height="48" rx="3" fill="#b8c97a"/>
  <rect x="60" y="20" width="12" height="62" rx="3" fill="#7db87d"/>
  <rect x="76" y="8" width="12" height="74" rx="3" fill="#f0ead6"/>
</svg>
