<svg xmlns="http://www.w3.org/2000/svg" viewBox="0 0 1200 630" width="1200" height="630">
  <!-- Background -->
  <rect width="1200" height="630" fill="#1a3a2a"/>

  <!-- Subtle hills across the bottom -->
  <path d="M0 520 Q180 450 360 500 Q540 420 720 480 Q900 400 1080 460 Q1140 480 1200 470 L1200 630 L0 630 Z" fill="#2d5a3a" opacity="0.55"/>
  <path d="M0 570 Q240 500 480 555 Q660 480 840 535 Q1020 470 1200 535 L1200 630 L0 630 Z" fill="#3a6b48" opacity="0.5"/>

  <!-- Logo tile (mirrors public/logo.svg, scaled up and placed left) -->
  <g transform="translate(90, 115) scale(4.0)">
    <rect width="100" height="100" rx="20" fill="#0f2a1e"/>
    <path d="M0 82 Q15 68 30 78 Q45 65 60 75 Q75 62 90 72 Q95 76 100 74 L100 100 L0 100 Z" fill="#2d5a3a" opacity="0.6"/>
    <path d="M0 88 Q20 75 40 84 Q55 72 70 80 Q85 70 100 80 L100 100 L0 100 Z" fill="#3a6b48" opacity="0.5"/>
    <rect x="12" y="62" width="12" height="20" rx="3" fill="#c4704b"/>
    <rect x="28" y="48" width="12" height="34" rx="3" fill="#d4a843"/>
    <rect x="44" y="34" width="12" height="48" rx="3" fill="#b8c97a"/>
    <rect x="60" y="20" width="12" height="62" rx="3" fill="#7db87d"/>
    <rect x="76" y="8" width="12" height="74" rx="3" fill="#f0ead6"/>
  </g>

  <!-- Text block -->
  <g font-family="Helvetica, Arial, sans-serif" fill="#f0ead6">
    <text x="540" y="290" font-size="104" font-weight="700" letter-spacing="-2">Rurality.app</text>
    <text x="540" y="370" font-size="46" font-weight="500" fill="#b8c97a">Rural Classification Tool</text>
    <text x="540" y="450" font-size="26" font-weight="400" fill="#cfd6bf" opacity="0.85">USDA RUCA &#183; RUCC &#183; Census ACS</text>
  </g>
</svg>
